<svg width="20" height="20" viewBox="0 0 20 20" fill="none" xmlns="http://www.w3.org/2000/svg">
<path d="M1.88674 14.455C1.02874 11.023 0.599738 9.308 1.50074 8.154C2.40074 7 4.17074 7 7.70774 7H12.3377C15.8757 7 17.6437 7 18.5447 8.154C19.4457 9.307 19.0167 11.024 18.1587 14.455C17.6127 16.638 17.3407 17.729 16.5267 18.365C15.7127 19 14.5877 19 12.3377 19H7.70774C5.45774 19 4.33274 19 3.51874 18.365C2.70474 17.729 2.43174 16.638 1.88674 14.455Z" stroke="#ADB5BD" stroke-width="1.5"/>
<path d="M17.5229 7.5L16.813 4.895C16.539 3.89 16.4019 3.388 16.1209 3.009C15.8408 2.63246 15.4603 2.3424 15.0229 2.172C14.5829 2 14.0629 2 13.0229 2M2.52295 7.5L3.23295 4.895C3.50695 3.89 3.64395 3.388 3.92495 3.009C4.20513 2.63246 4.58564 2.3424 5.02295 2.172C5.46295 2 5.98295 2 7.02295 2" stroke="#ADB5BD" stroke-width="1.5"/>
<path d="M7.02295 2C7.02295 1.73478 7.12831 1.48043 7.31584 1.29289C7.50338 1.10536 7.75773 1 8.02295 1H12.0229C12.2882 1 12.5425 1.10536 12.7301 1.29289C12.9176 1.48043 13.0229 1.73478 13.0229 2C13.0229 2.26522 12.9176 2.51957 12.7301 2.70711C12.5425 2.89464 12.2882 3 12.0229 3H8.02295C7.75773 3 7.50338 2.89464 7.31584 2.70711C7.12831 2.51957 7.02295 2.26522 7.02295 2Z" stroke="#ADB5BD" stroke-width="1.5"/>
</svg>
