<svg width="42" height="42" viewBox="0 0 42 42" fill="none" xmlns="http://www.w3.org/2000/svg">
<path d="M12.8867 25.455C12.0287 22.023 11.5997 20.308 12.5007 19.154C13.4007 18 15.1707 18 18.7077 18H23.3377C26.8757 18 28.6437 18 29.5447 19.154C30.4457 20.307 30.0167 22.024 29.1587 25.455C28.6127 27.638 28.3407 28.729 27.5267 29.365C26.7127 30 25.5877 30 23.3377 30H18.7077C16.4577 30 15.3327 30 14.5187 29.365C13.7047 28.729 13.4317 27.638 12.8867 25.455Z" stroke="#ADB5BD" stroke-width="1.5"/>
<path d="M28.5229 18.5L27.813 15.895C27.539 14.89 27.4019 14.388 27.1209 14.009C26.8408 13.6325 26.4603 13.3424 26.0229 13.172C25.5829 13 25.0629 13 24.0229 13M13.5229 18.5L14.2329 15.895C14.5069 14.89 14.6439 14.388 14.9249 14.009C15.2051 13.6325 15.5856 13.3424 16.0229 13.172C16.4629 13 16.9829 13 18.0229 13" stroke="#ADB5BD" stroke-width="1.5"/>
<path d="M18.0229 13C18.0229 12.7348 18.1283 12.4804 18.3158 12.2929C18.5034 12.1054 18.7577 12 19.0229 12H23.0229C23.2882 12 23.5425 12.1054 23.7301 12.2929C23.9176 12.4804 24.0229 12.7348 24.0229 13C24.0229 13.2652 23.9176 13.5196 23.7301 13.7071C23.5425 13.8946 23.2882 14 23.0229 14H19.0229C18.7577 14 18.5034 13.8946 18.3158 13.7071C18.1283 13.5196 18.0229 13.2652 18.0229 13Z" stroke="#ADB5BD" stroke-width="1.5"/>
</svg>
