<svg width="24" height="25" viewBox="0 0 24 25" fill="none" xmlns="http://www.w3.org/2000/svg">
<path d="M11.83 9.5452L15 12.7052V12.5452C15 11.7495 14.6839 10.9865 14.1213 10.4239C13.5587 9.86127 12.7956 9.5452 12 9.5452H11.83ZM7.53 10.3452L9.08 11.8952C9.03 12.1052 9 12.3152 9 12.5452C9 13.3408 9.31607 14.1039 9.87868 14.6665C10.4413 15.2291 11.2044 15.5452 12 15.5452C12.22 15.5452 12.44 15.5152 12.65 15.4652L14.2 17.0152C13.53 17.3452 12.79 17.5452 12 17.5452C10.6739 17.5452 9.40215 17.0184 8.46447 16.0807C7.52678 15.143 7 13.8713 7 12.5452C7 11.7552 7.2 11.0152 7.53 10.3452ZM2 4.8152L4.28 7.0952L4.73 7.5452C3.08 8.8452 1.78 10.5452 1 12.5452C2.73 16.9352 7 20.0452 12 20.0452C13.55 20.0452 15.03 19.7452 16.38 19.2052L16.81 19.6252L19.73 22.5452L21 21.2752L3.27 3.5452M12 7.5452C13.3261 7.5452 14.5979 8.07198 15.5355 9.00966C16.4732 9.94734 17 11.2191 17 12.5452C17 13.1852 16.87 13.8052 16.64 14.3652L19.57 17.2952C21.07 16.0452 22.27 14.4052 23 12.5452C21.27 8.1552 17 5.0452 12 5.0452C10.6 5.0452 9.26 5.2952 8 5.7452L10.17 7.8952C10.74 7.6752 11.35 7.5452 12 7.5452Z" fill="#ADB5BD"/>
</svg>
