<svg width="48" height="48" viewBox="0 0 48 48" fill="none" xmlns="http://www.w3.org/2000/svg">
<path d="M8.59186 24.0001L25.5759 6.54606C25.7157 6.4054 25.8262 6.23841 25.9011 6.05475C25.976 5.87108 26.0137 5.67439 26.012 5.47606C26.0104 5.27773 25.9694 5.0817 25.8915 4.89931C25.8136 4.71691 25.7003 4.55178 25.5581 4.41346C25.416 4.27515 25.2478 4.1664 25.0634 4.0935C24.8789 4.02061 24.6818 3.98502 24.4835 3.9888C24.2852 3.99257 24.0896 4.03564 23.9081 4.1155C23.7265 4.19536 23.5626 4.31043 23.4259 4.45406L5.42586 22.9541C5.15341 23.2341 5.00098 23.6094 5.00098 24.0001C5.00098 24.3908 5.15341 24.766 5.42586 25.0461L23.4259 43.5461C23.5626 43.6897 23.7265 43.8048 23.9081 43.8846C24.0896 43.9645 24.2852 44.0075 24.4835 44.0113C24.6818 44.0151 24.8789 43.9795 25.0634 43.9066C25.2478 43.8337 25.416 43.725 25.5581 43.5867C25.7003 43.4483 25.8136 43.2832 25.8915 43.1008C25.9694 42.9184 26.0104 42.7224 26.012 42.5241C26.0137 42.3257 25.976 42.129 25.9011 41.9454C25.8262 41.7617 25.7157 41.5947 25.5759 41.4541L8.59186 24.0001Z" fill="#ADB5BD"/>
</svg>
