<svg width="47" height="38" viewBox="0 0 47 38" fill="none" xmlns="http://www.w3.org/2000/svg">
<path fill-rule="evenodd" clip-rule="evenodd" d="M22.2253 7.53315C22.2257 7.50958 22.2259 7.48599 22.2259 7.46236C22.2259 3.59221 17.2505 0.454834 11.113 0.454834C4.97544 0.454834 0 3.59221 0 7.46236C0 7.48599 0.000185372 7.50958 0.000555249 7.53315H0V37.5452H0.0754082C0.719837 33.6395 5.41573 30.6085 11.113 30.6085C16.8102 30.6085 21.5061 33.6395 22.1505 37.5452H22.2259V7.53315H22.2253Z" fill="#FD7E14"/>
<path fill-rule="evenodd" clip-rule="evenodd" d="M24.7747 7.53315C24.7743 7.50958 24.7741 7.48599 24.7741 7.46236C24.7741 3.59221 29.7495 0.454834 35.887 0.454834C42.0246 0.454834 47 3.59221 47 7.46236C47 7.48599 46.9998 7.50958 46.9994 7.53315H47V37.5452H46.9246C46.2802 33.6395 41.5843 30.6085 35.887 30.6085C30.1898 30.6085 25.4939 33.6395 24.8495 37.5452H24.7741V7.53315H24.7747Z" fill="#FD7E14"/>
</svg>
