<svg width="22" height="42" viewBox="0 0 22 42" fill="none" xmlns="http://www.w3.org/2000/svg">
<path d="M3.59186 21.0001L20.5759 3.54606C20.7157 3.4054 20.8262 3.23841 20.9011 3.05475C20.976 2.87108 21.0137 2.67439 21.012 2.47606C21.0104 2.27773 20.9694 2.0817 20.8915 1.89931C20.8136 1.71691 20.7003 1.55178 20.5581 1.41346C20.416 1.27515 20.2478 1.1664 20.0634 1.0935C19.8789 1.02061 19.6818 0.985022 19.4835 0.988797C19.2852 0.992573 19.0896 1.03564 18.9081 1.1155C18.7265 1.19536 18.5626 1.31043 18.4259 1.45406L0.425856 19.9541C0.153412 20.2341 0.000976562 20.6094 0.000976562 21.0001C0.000976562 21.3908 0.153412 21.766 0.425856 22.0461L18.4259 40.5461C18.5626 40.6897 18.7265 40.8048 18.9081 40.8846C19.0896 40.9645 19.2852 41.0075 19.4835 41.0113C19.6818 41.0151 19.8789 40.9795 20.0634 40.9066C20.2478 40.8337 20.416 40.725 20.5581 40.5867C20.7003 40.4483 20.8136 40.2832 20.8915 40.1008C20.9694 39.9184 21.0104 39.7224 21.012 39.5241C21.0137 39.3257 20.976 39.129 20.9011 38.9454C20.8262 38.7617 20.7157 38.5947 20.5759 38.4541L3.59186 21.0001Z" fill="#ADB5BD"/>
</svg>
