<svg width="22" height="42" viewBox="0 0 22 42" fill="none" xmlns="http://www.w3.org/2000/svg">
<path d="M18.4081 21.0001L1.42414 3.54606C1.28431 3.4054 1.17377 3.23841 1.0989 3.05475C1.02403 2.87108 0.986324 2.67439 0.987972 2.47606C0.98962 2.27773 1.03058 2.0817 1.10849 1.89931C1.1864 1.71691 1.29971 1.55178 1.44186 1.41346C1.58401 1.27515 1.75218 1.1664 1.93663 1.0935C2.12109 1.02061 2.31817 0.985022 2.51648 0.988797C2.71478 0.992573 2.91036 1.03564 3.09191 1.1155C3.27345 1.19536 3.43736 1.31043 3.57414 1.45406L21.5741 19.9541C21.8466 20.2341 21.999 20.6094 21.999 21.0001C21.999 21.3908 21.8466 21.766 21.5741 22.0461L3.57414 40.5461C3.43736 40.6897 3.27345 40.8048 3.09191 40.8846C2.91036 40.9645 2.71478 41.0075 2.51648 41.0113C2.31817 41.0151 2.12109 40.9795 1.93663 40.9066C1.75218 40.8337 1.58401 40.725 1.44186 40.5867C1.29971 40.4483 1.1864 40.2832 1.10849 40.1008C1.03058 39.9184 0.98962 39.7224 0.987972 39.5241C0.986324 39.3257 1.02403 39.129 1.0989 38.9454C1.17377 38.7617 1.28431 38.5947 1.42414 38.4541L18.4081 21.0001Z" fill="#ADB5BD"/>
</svg>
